<mxfile host="app.diagrams.net" modified="2023-07-11T07:14:13.118Z" agent="Mozilla/5.0 (Macintosh; Intel Mac OS X 10_15_7) AppleWebKit/537.36 (KHTML, like Gecko) Chrome/114.0.0.0 Safari/537.36 Edg/114.0.1823.79" version="21.6.1" etag="9395Mw91lH7lgxRShVgi" type="github">
  <diagram name="Sayfa -1" id="eu17P7fStUT8qjdgLNdl">
    <mxGraphModel>
      <root>
        <mxCell id="0" />
        <mxCell id="1" parent="0" />
      </root>
    </mxGraphModel>
  </diagram>
</mxfile>
